<mxfile host="app.diagrams.net" modified="2024-04-18T14:22:12.740Z" agent="Mozilla/5.0 (Windows NT 10.0; Win64; x64) AppleWebKit/537.36 (KHTML, like Gecko) Chrome/123.0.0.0 Safari/537.36" etag="Q3Tn0fgGQMKQORuWD89N" version="24.2.5" type="device">
  <diagram id="C5RBs43oDa-KdzZeNtuy" name="Page-1">
    <mxGraphModel dx="1400" dy="707" grid="1" gridSize="10" guides="1" tooltips="1" connect="1" arrows="1" fold="1" page="1" pageScale="1" pageWidth="827" pageHeight="1169" math="0" shadow="0">
      <root>
        <mxCell id="WIyWlLk6GJQsqaUBKTNV-0" />
        <mxCell id="WIyWlLk6GJQsqaUBKTNV-1" parent="WIyWlLk6GJQsqaUBKTNV-0" />
        <mxCell id="ExBjZ8pog-AtWkOkbSy3-0" style="edgeStyle=orthogonalEdgeStyle;rounded=0;orthogonalLoop=1;jettySize=auto;html=1;entryX=0.5;entryY=1;entryDx=0;entryDy=0;" parent="WIyWlLk6GJQsqaUBKTNV-1" source="3SX-jlCpRVcLW0ezpYoT-0" target="3SX-jlCpRVcLW0ezpYoT-5" edge="1">
          <mxGeometry relative="1" as="geometry" />
        </mxCell>
        <mxCell id="3SX-jlCpRVcLW0ezpYoT-0" value="USUARIO&lt;span style=&quot;white-space: pre;&quot;&gt;&#x9;&lt;/span&gt;" style="rounded=0;whiteSpace=wrap;html=1;" parent="WIyWlLk6GJQsqaUBKTNV-1" vertex="1">
          <mxGeometry x="980" y="700" width="120" height="60" as="geometry" />
        </mxCell>
        <mxCell id="3SX-jlCpRVcLW0ezpYoT-1" value="RESERVA" style="rounded=0;whiteSpace=wrap;html=1;" parent="WIyWlLk6GJQsqaUBKTNV-1" vertex="1">
          <mxGeometry x="980" y="250" width="120" height="60" as="geometry" />
        </mxCell>
        <mxCell id="3SX-jlCpRVcLW0ezpYoT-2" value="ADMINISTRADOR" style="rounded=0;whiteSpace=wrap;html=1;" parent="WIyWlLk6GJQsqaUBKTNV-1" vertex="1">
          <mxGeometry x="820" y="1109" width="120" height="60" as="geometry" />
        </mxCell>
        <mxCell id="ExBjZ8pog-AtWkOkbSy3-6" style="edgeStyle=orthogonalEdgeStyle;rounded=0;orthogonalLoop=1;jettySize=auto;html=1;exitX=0.5;exitY=1;exitDx=0;exitDy=0;entryX=0.5;entryY=0;entryDx=0;entryDy=0;" parent="WIyWlLk6GJQsqaUBKTNV-1" source="3SX-jlCpRVcLW0ezpYoT-3" target="3SX-jlCpRVcLW0ezpYoT-7" edge="1">
          <mxGeometry relative="1" as="geometry" />
        </mxCell>
        <mxCell id="3SX-jlCpRVcLW0ezpYoT-3" value="EMRPESA" style="rounded=0;whiteSpace=wrap;html=1;" parent="WIyWlLk6GJQsqaUBKTNV-1" vertex="1">
          <mxGeometry x="610" y="255" width="120" height="60" as="geometry" />
        </mxCell>
        <mxCell id="3SX-jlCpRVcLW0ezpYoT-4" value="SERVICIO" style="rounded=0;whiteSpace=wrap;html=1;" parent="WIyWlLk6GJQsqaUBKTNV-1" vertex="1">
          <mxGeometry x="610" y="710" width="120" height="60" as="geometry" />
        </mxCell>
        <mxCell id="ExBjZ8pog-AtWkOkbSy3-1" style="edgeStyle=orthogonalEdgeStyle;rounded=0;orthogonalLoop=1;jettySize=auto;html=1;exitX=0.5;exitY=0;exitDx=0;exitDy=0;entryX=0.5;entryY=1;entryDx=0;entryDy=0;" parent="WIyWlLk6GJQsqaUBKTNV-1" source="3SX-jlCpRVcLW0ezpYoT-5" target="3SX-jlCpRVcLW0ezpYoT-1" edge="1">
          <mxGeometry relative="1" as="geometry" />
        </mxCell>
        <mxCell id="3SX-jlCpRVcLW0ezpYoT-5" value="REALIZA" style="rhombus;whiteSpace=wrap;html=1;" parent="WIyWlLk6GJQsqaUBKTNV-1" vertex="1">
          <mxGeometry x="1000" y="490" width="80" height="40" as="geometry" />
        </mxCell>
        <mxCell id="ExBjZ8pog-AtWkOkbSy3-3" style="edgeStyle=orthogonalEdgeStyle;rounded=0;orthogonalLoop=1;jettySize=auto;html=1;exitX=0.5;exitY=1;exitDx=0;exitDy=0;entryX=1;entryY=0.5;entryDx=0;entryDy=0;" parent="WIyWlLk6GJQsqaUBKTNV-1" source="3SX-jlCpRVcLW0ezpYoT-6" target="3SX-jlCpRVcLW0ezpYoT-4" edge="1">
          <mxGeometry relative="1" as="geometry" />
        </mxCell>
        <mxCell id="3SX-jlCpRVcLW0ezpYoT-6" value="CONTIENE" style="rhombus;whiteSpace=wrap;html=1;" parent="WIyWlLk6GJQsqaUBKTNV-1" vertex="1">
          <mxGeometry x="800" y="510" width="80" height="40" as="geometry" />
        </mxCell>
        <mxCell id="ExBjZ8pog-AtWkOkbSy3-7" style="edgeStyle=orthogonalEdgeStyle;rounded=0;orthogonalLoop=1;jettySize=auto;html=1;exitX=0.5;exitY=1;exitDx=0;exitDy=0;entryX=0.5;entryY=0;entryDx=0;entryDy=0;" parent="WIyWlLk6GJQsqaUBKTNV-1" source="3SX-jlCpRVcLW0ezpYoT-7" target="3SX-jlCpRVcLW0ezpYoT-4" edge="1">
          <mxGeometry relative="1" as="geometry" />
        </mxCell>
        <mxCell id="3SX-jlCpRVcLW0ezpYoT-7" value="OFERTA" style="rhombus;whiteSpace=wrap;html=1;" parent="WIyWlLk6GJQsqaUBKTNV-1" vertex="1">
          <mxGeometry x="630" y="470" width="80" height="40" as="geometry" />
        </mxCell>
        <mxCell id="3SX-jlCpRVcLW0ezpYoT-9" value="GESTIONA" style="rhombus;whiteSpace=wrap;html=1;" parent="WIyWlLk6GJQsqaUBKTNV-1" vertex="1">
          <mxGeometry x="1040" y="1085" width="80" height="40" as="geometry" />
        </mxCell>
        <mxCell id="3SX-jlCpRVcLW0ezpYoT-27" value="NOMBRE" style="ellipse;whiteSpace=wrap;html=1;" parent="WIyWlLk6GJQsqaUBKTNV-1" vertex="1">
          <mxGeometry x="370" y="195" width="130" height="50" as="geometry" />
        </mxCell>
        <mxCell id="3SX-jlCpRVcLW0ezpYoT-28" value="ID_EMPRESA&lt;span style=&quot;white-space: pre;&quot;&gt;&#x9;&lt;/span&gt;" style="ellipse;whiteSpace=wrap;html=1;" parent="WIyWlLk6GJQsqaUBKTNV-1" vertex="1">
          <mxGeometry x="370" y="135" width="130" height="50" as="geometry" />
        </mxCell>
        <mxCell id="3SX-jlCpRVcLW0ezpYoT-29" value="DESCRIPCION" style="ellipse;whiteSpace=wrap;html=1;" parent="WIyWlLk6GJQsqaUBKTNV-1" vertex="1">
          <mxGeometry x="370" y="255" width="130" height="50" as="geometry" />
        </mxCell>
        <mxCell id="3SX-jlCpRVcLW0ezpYoT-30" value="CORREO" style="ellipse;whiteSpace=wrap;html=1;" parent="WIyWlLk6GJQsqaUBKTNV-1" vertex="1">
          <mxGeometry x="370" y="375" width="130" height="50" as="geometry" />
        </mxCell>
        <mxCell id="3SX-jlCpRVcLW0ezpYoT-31" value="TELEFONO" style="ellipse;whiteSpace=wrap;html=1;" parent="WIyWlLk6GJQsqaUBKTNV-1" vertex="1">
          <mxGeometry x="370" y="315" width="130" height="50" as="geometry" />
        </mxCell>
        <mxCell id="3SX-jlCpRVcLW0ezpYoT-34" value="ID_SERVICIO" style="ellipse;whiteSpace=wrap;html=1;" parent="WIyWlLk6GJQsqaUBKTNV-1" vertex="1">
          <mxGeometry x="370" y="540" width="130" height="50" as="geometry" />
        </mxCell>
        <mxCell id="3SX-jlCpRVcLW0ezpYoT-35" value="NOMBRE_SERVICIO" style="ellipse;whiteSpace=wrap;html=1;" parent="WIyWlLk6GJQsqaUBKTNV-1" vertex="1">
          <mxGeometry x="370" y="610" width="130" height="50" as="geometry" />
        </mxCell>
        <mxCell id="3SX-jlCpRVcLW0ezpYoT-40" value="DESCRIPCION" style="ellipse;whiteSpace=wrap;html=1;" parent="WIyWlLk6GJQsqaUBKTNV-1" vertex="1">
          <mxGeometry x="370" y="680" width="130" height="50" as="geometry" />
        </mxCell>
        <mxCell id="3SX-jlCpRVcLW0ezpYoT-41" value="PRECIO" style="ellipse;whiteSpace=wrap;html=1;" parent="WIyWlLk6GJQsqaUBKTNV-1" vertex="1">
          <mxGeometry x="370" y="750" width="130" height="50" as="geometry" />
        </mxCell>
        <mxCell id="3SX-jlCpRVcLW0ezpYoT-42" value="DURACION" style="ellipse;whiteSpace=wrap;html=1;" parent="WIyWlLk6GJQsqaUBKTNV-1" vertex="1">
          <mxGeometry x="370" y="820" width="130" height="50" as="geometry" />
        </mxCell>
        <mxCell id="3SX-jlCpRVcLW0ezpYoT-43" value="ID_EMPRESA" style="ellipse;whiteSpace=wrap;html=1;" parent="WIyWlLk6GJQsqaUBKTNV-1" vertex="1">
          <mxGeometry x="370" y="890" width="130" height="50" as="geometry" />
        </mxCell>
        <mxCell id="3SX-jlCpRVcLW0ezpYoT-44" value="ID_RESERVA" style="ellipse;whiteSpace=wrap;html=1;" parent="WIyWlLk6GJQsqaUBKTNV-1" vertex="1">
          <mxGeometry x="1220" y="50" width="130" height="50" as="geometry" />
        </mxCell>
        <mxCell id="3SX-jlCpRVcLW0ezpYoT-45" value="FECHA_HORA" style="ellipse;whiteSpace=wrap;html=1;" parent="WIyWlLk6GJQsqaUBKTNV-1" vertex="1">
          <mxGeometry x="1220" y="120" width="130" height="50" as="geometry" />
        </mxCell>
        <mxCell id="3SX-jlCpRVcLW0ezpYoT-46" value="ESTADO" style="ellipse;whiteSpace=wrap;html=1;" parent="WIyWlLk6GJQsqaUBKTNV-1" vertex="1">
          <mxGeometry x="1220" y="190" width="130" height="50" as="geometry" />
        </mxCell>
        <mxCell id="3SX-jlCpRVcLW0ezpYoT-47" value="ID_USUARIO (FK)" style="ellipse;whiteSpace=wrap;html=1;" parent="WIyWlLk6GJQsqaUBKTNV-1" vertex="1">
          <mxGeometry x="1220" y="260" width="130" height="50" as="geometry" />
        </mxCell>
        <mxCell id="3SX-jlCpRVcLW0ezpYoT-48" value="ID_SERVICIO (FK)" style="ellipse;whiteSpace=wrap;html=1;" parent="WIyWlLk6GJQsqaUBKTNV-1" vertex="1">
          <mxGeometry x="1220" y="330" width="130" height="50" as="geometry" />
        </mxCell>
        <mxCell id="3SX-jlCpRVcLW0ezpYoT-50" value="APELLIDO" style="ellipse;whiteSpace=wrap;html=1;" parent="WIyWlLk6GJQsqaUBKTNV-1" vertex="1">
          <mxGeometry x="2141" y="870" width="130" height="50" as="geometry" />
        </mxCell>
        <mxCell id="3SX-jlCpRVcLW0ezpYoT-51" value="TELEFONO" style="ellipse;whiteSpace=wrap;html=1;" parent="WIyWlLk6GJQsqaUBKTNV-1" vertex="1">
          <mxGeometry x="2141" y="940" width="130" height="50" as="geometry" />
        </mxCell>
        <mxCell id="3SX-jlCpRVcLW0ezpYoT-52" value="NOMBRE" style="ellipse;whiteSpace=wrap;html=1;" parent="WIyWlLk6GJQsqaUBKTNV-1" vertex="1">
          <mxGeometry x="1980" y="870" width="130" height="50" as="geometry" />
        </mxCell>
        <mxCell id="3SX-jlCpRVcLW0ezpYoT-53" value="CONTRASEÑA" style="ellipse;whiteSpace=wrap;html=1;" parent="WIyWlLk6GJQsqaUBKTNV-1" vertex="1">
          <mxGeometry x="1980" y="940" width="130" height="50" as="geometry" />
        </mxCell>
        <mxCell id="3SX-jlCpRVcLW0ezpYoT-54" value="ID_USUARIO" style="ellipse;whiteSpace=wrap;html=1;" parent="WIyWlLk6GJQsqaUBKTNV-1" vertex="1">
          <mxGeometry x="1840" y="870" width="130" height="50" as="geometry" />
        </mxCell>
        <mxCell id="3SX-jlCpRVcLW0ezpYoT-55" value="CORREO_ELECTRONICO" style="ellipse;whiteSpace=wrap;html=1;" parent="WIyWlLk6GJQsqaUBKTNV-1" vertex="1">
          <mxGeometry x="1810" y="930" width="150" height="50" as="geometry" />
        </mxCell>
        <mxCell id="3SX-jlCpRVcLW0ezpYoT-56" value="ID_ADMINISTRADOR" style="ellipse;whiteSpace=wrap;html=1;" parent="WIyWlLk6GJQsqaUBKTNV-1" vertex="1">
          <mxGeometry x="1330" y="530" width="130" height="50" as="geometry" />
        </mxCell>
        <mxCell id="3SX-jlCpRVcLW0ezpYoT-57" value="NIVEL_ACCESO" style="ellipse;whiteSpace=wrap;html=1;" parent="WIyWlLk6GJQsqaUBKTNV-1" vertex="1">
          <mxGeometry x="1320" y="1010" width="130" height="50" as="geometry" />
        </mxCell>
        <mxCell id="3SX-jlCpRVcLW0ezpYoT-58" value="LA DUDA AQUI ES SOBRE SI CREO UN NUEVO ADMINISTRADOR O UTILIZO EL MISMO USUARIO Y LE METO UN CAMPO ESADMIN PERO CLARO PARA ESO TENDRÍA QUE PONER QUE SOLAMENTE LOS ADMIN TENGAN ESAS FUNCIONES, TMBN HE PENSADO EN HACERLO COMO UNA HERENCIA PERO NO SE SI SIRVE. PREGUNTAR GUILLERMO" style="ellipse;whiteSpace=wrap;html=1;" parent="WIyWlLk6GJQsqaUBKTNV-1" vertex="1">
          <mxGeometry x="1790" y="585" width="130" height="50" as="geometry" />
        </mxCell>
        <mxCell id="3SX-jlCpRVcLW0ezpYoT-59" value="ID_USUARIO" style="ellipse;whiteSpace=wrap;html=1;" parent="WIyWlLk6GJQsqaUBKTNV-1" vertex="1">
          <mxGeometry x="1330" y="935" width="130" height="50" as="geometry" />
        </mxCell>
        <mxCell id="3SX-jlCpRVcLW0ezpYoT-61" value="APELLIDO" style="ellipse;whiteSpace=wrap;html=1;" parent="WIyWlLk6GJQsqaUBKTNV-1" vertex="1">
          <mxGeometry x="1330" y="450" width="130" height="50" as="geometry" />
        </mxCell>
        <mxCell id="3SX-jlCpRVcLW0ezpYoT-62" value="TELEFONO" style="ellipse;whiteSpace=wrap;html=1;" parent="WIyWlLk6GJQsqaUBKTNV-1" vertex="1">
          <mxGeometry x="1331" y="870" width="130" height="50" as="geometry" />
        </mxCell>
        <mxCell id="3SX-jlCpRVcLW0ezpYoT-63" value="NOMBRE" style="ellipse;whiteSpace=wrap;html=1;" parent="WIyWlLk6GJQsqaUBKTNV-1" vertex="1">
          <mxGeometry x="1340" y="810" width="130" height="50" as="geometry" />
        </mxCell>
        <mxCell id="3SX-jlCpRVcLW0ezpYoT-64" value="CONTRASEÑA" style="ellipse;whiteSpace=wrap;html=1;" parent="WIyWlLk6GJQsqaUBKTNV-1" vertex="1">
          <mxGeometry x="1340" y="740" width="130" height="50" as="geometry" />
        </mxCell>
        <mxCell id="3SX-jlCpRVcLW0ezpYoT-65" value="ID_USUARIO" style="ellipse;whiteSpace=wrap;html=1;" parent="WIyWlLk6GJQsqaUBKTNV-1" vertex="1">
          <mxGeometry x="1340" y="590" width="130" height="50" as="geometry" />
        </mxCell>
        <mxCell id="3SX-jlCpRVcLW0ezpYoT-66" value="CORREO_ELECTRONICO" style="ellipse;whiteSpace=wrap;html=1;" parent="WIyWlLk6GJQsqaUBKTNV-1" vertex="1">
          <mxGeometry x="1331" y="660" width="150" height="50" as="geometry" />
        </mxCell>
        <mxCell id="3SX-jlCpRVcLW0ezpYoT-70" value="" style="endArrow=none;html=1;rounded=0;entryX=0;entryY=0.5;entryDx=0;entryDy=0;" parent="WIyWlLk6GJQsqaUBKTNV-1" target="3SX-jlCpRVcLW0ezpYoT-4" edge="1">
          <mxGeometry width="50" height="50" relative="1" as="geometry">
            <mxPoint x="500" y="850" as="sourcePoint" />
            <mxPoint x="550" y="800" as="targetPoint" />
          </mxGeometry>
        </mxCell>
        <mxCell id="3SX-jlCpRVcLW0ezpYoT-71" value="" style="endArrow=none;html=1;rounded=0;entryX=0;entryY=0.5;entryDx=0;entryDy=0;" parent="WIyWlLk6GJQsqaUBKTNV-1" target="3SX-jlCpRVcLW0ezpYoT-4" edge="1">
          <mxGeometry width="50" height="50" relative="1" as="geometry">
            <mxPoint x="500" y="920" as="sourcePoint" />
            <mxPoint x="550" y="870" as="targetPoint" />
          </mxGeometry>
        </mxCell>
        <mxCell id="3SX-jlCpRVcLW0ezpYoT-72" value="" style="endArrow=none;html=1;rounded=0;entryX=0;entryY=0.5;entryDx=0;entryDy=0;" parent="WIyWlLk6GJQsqaUBKTNV-1" target="3SX-jlCpRVcLW0ezpYoT-4" edge="1">
          <mxGeometry width="50" height="50" relative="1" as="geometry">
            <mxPoint x="500" y="770" as="sourcePoint" />
            <mxPoint x="550" y="720" as="targetPoint" />
          </mxGeometry>
        </mxCell>
        <mxCell id="3SX-jlCpRVcLW0ezpYoT-73" value="" style="endArrow=none;html=1;rounded=0;entryX=0;entryY=0.5;entryDx=0;entryDy=0;" parent="WIyWlLk6GJQsqaUBKTNV-1" target="3SX-jlCpRVcLW0ezpYoT-4" edge="1">
          <mxGeometry width="50" height="50" relative="1" as="geometry">
            <mxPoint x="500" y="710" as="sourcePoint" />
            <mxPoint x="550" y="660" as="targetPoint" />
          </mxGeometry>
        </mxCell>
        <mxCell id="3SX-jlCpRVcLW0ezpYoT-74" value="" style="endArrow=none;html=1;rounded=0;entryX=0;entryY=0.5;entryDx=0;entryDy=0;" parent="WIyWlLk6GJQsqaUBKTNV-1" target="3SX-jlCpRVcLW0ezpYoT-4" edge="1">
          <mxGeometry width="50" height="50" relative="1" as="geometry">
            <mxPoint x="500" y="640" as="sourcePoint" />
            <mxPoint x="550" y="590" as="targetPoint" />
          </mxGeometry>
        </mxCell>
        <mxCell id="3SX-jlCpRVcLW0ezpYoT-75" value="" style="endArrow=none;html=1;rounded=0;entryX=0;entryY=0.5;entryDx=0;entryDy=0;" parent="WIyWlLk6GJQsqaUBKTNV-1" target="3SX-jlCpRVcLW0ezpYoT-4" edge="1">
          <mxGeometry width="50" height="50" relative="1" as="geometry">
            <mxPoint x="500" y="570" as="sourcePoint" />
            <mxPoint x="550" y="520" as="targetPoint" />
          </mxGeometry>
        </mxCell>
        <mxCell id="3SX-jlCpRVcLW0ezpYoT-79" value="" style="endArrow=none;html=1;rounded=0;entryX=0;entryY=0.5;entryDx=0;entryDy=0;" parent="WIyWlLk6GJQsqaUBKTNV-1" target="3SX-jlCpRVcLW0ezpYoT-61" edge="1">
          <mxGeometry width="50" height="50" relative="1" as="geometry">
            <mxPoint x="1120" y="730" as="sourcePoint" />
            <mxPoint x="1170" y="680" as="targetPoint" />
          </mxGeometry>
        </mxCell>
        <mxCell id="3SX-jlCpRVcLW0ezpYoT-80" value="" style="endArrow=none;html=1;rounded=0;entryX=0;entryY=0.5;entryDx=0;entryDy=0;" parent="WIyWlLk6GJQsqaUBKTNV-1" target="3SX-jlCpRVcLW0ezpYoT-56" edge="1">
          <mxGeometry width="50" height="50" relative="1" as="geometry">
            <mxPoint x="1120" y="730" as="sourcePoint" />
            <mxPoint x="1170" y="680" as="targetPoint" />
          </mxGeometry>
        </mxCell>
        <mxCell id="3SX-jlCpRVcLW0ezpYoT-81" value="" style="endArrow=none;html=1;rounded=0;entryX=0;entryY=0.5;entryDx=0;entryDy=0;" parent="WIyWlLk6GJQsqaUBKTNV-1" target="3SX-jlCpRVcLW0ezpYoT-66" edge="1">
          <mxGeometry width="50" height="50" relative="1" as="geometry">
            <mxPoint x="1120" y="730" as="sourcePoint" />
            <mxPoint x="1170" y="680" as="targetPoint" />
          </mxGeometry>
        </mxCell>
        <mxCell id="3SX-jlCpRVcLW0ezpYoT-83" value="" style="endArrow=none;html=1;rounded=0;entryX=0;entryY=0.5;entryDx=0;entryDy=0;" parent="WIyWlLk6GJQsqaUBKTNV-1" target="3SX-jlCpRVcLW0ezpYoT-64" edge="1">
          <mxGeometry width="50" height="50" relative="1" as="geometry">
            <mxPoint x="1120" y="730" as="sourcePoint" />
            <mxPoint x="1170" y="680" as="targetPoint" />
          </mxGeometry>
        </mxCell>
        <mxCell id="3SX-jlCpRVcLW0ezpYoT-84" value="" style="endArrow=none;html=1;rounded=0;entryX=0;entryY=0.5;entryDx=0;entryDy=0;" parent="WIyWlLk6GJQsqaUBKTNV-1" target="3SX-jlCpRVcLW0ezpYoT-63" edge="1">
          <mxGeometry width="50" height="50" relative="1" as="geometry">
            <mxPoint x="1120" y="730" as="sourcePoint" />
            <mxPoint x="1170" y="680" as="targetPoint" />
          </mxGeometry>
        </mxCell>
        <mxCell id="3SX-jlCpRVcLW0ezpYoT-85" value="" style="endArrow=none;html=1;rounded=0;entryX=0;entryY=0.5;entryDx=0;entryDy=0;" parent="WIyWlLk6GJQsqaUBKTNV-1" target="3SX-jlCpRVcLW0ezpYoT-62" edge="1">
          <mxGeometry width="50" height="50" relative="1" as="geometry">
            <mxPoint x="1120" y="730" as="sourcePoint" />
            <mxPoint x="1170" y="680" as="targetPoint" />
          </mxGeometry>
        </mxCell>
        <mxCell id="3SX-jlCpRVcLW0ezpYoT-86" value="" style="endArrow=none;html=1;rounded=0;entryX=0;entryY=0.5;entryDx=0;entryDy=0;" parent="WIyWlLk6GJQsqaUBKTNV-1" target="3SX-jlCpRVcLW0ezpYoT-59" edge="1">
          <mxGeometry width="50" height="50" relative="1" as="geometry">
            <mxPoint x="1120" y="730" as="sourcePoint" />
            <mxPoint x="1170" y="680" as="targetPoint" />
          </mxGeometry>
        </mxCell>
        <mxCell id="3SX-jlCpRVcLW0ezpYoT-87" value="" style="endArrow=none;html=1;rounded=0;entryX=0;entryY=0.5;entryDx=0;entryDy=0;" parent="WIyWlLk6GJQsqaUBKTNV-1" target="3SX-jlCpRVcLW0ezpYoT-57" edge="1">
          <mxGeometry width="50" height="50" relative="1" as="geometry">
            <mxPoint x="1120" y="730" as="sourcePoint" />
            <mxPoint x="1170" y="680" as="targetPoint" />
          </mxGeometry>
        </mxCell>
        <mxCell id="3SX-jlCpRVcLW0ezpYoT-89" value="" style="endArrow=none;html=1;rounded=0;entryX=0;entryY=0.5;entryDx=0;entryDy=0;" parent="WIyWlLk6GJQsqaUBKTNV-1" target="3SX-jlCpRVcLW0ezpYoT-65" edge="1">
          <mxGeometry width="50" height="50" relative="1" as="geometry">
            <mxPoint x="1120" y="730" as="sourcePoint" />
            <mxPoint x="1170" y="680" as="targetPoint" />
          </mxGeometry>
        </mxCell>
        <mxCell id="3SX-jlCpRVcLW0ezpYoT-90" value="" style="endArrow=none;html=1;rounded=0;entryX=0;entryY=0.5;entryDx=0;entryDy=0;" parent="WIyWlLk6GJQsqaUBKTNV-1" edge="1">
          <mxGeometry width="50" height="50" relative="1" as="geometry">
            <mxPoint x="1100" y="270" as="sourcePoint" />
            <mxPoint x="1220" y="210" as="targetPoint" />
          </mxGeometry>
        </mxCell>
        <mxCell id="3SX-jlCpRVcLW0ezpYoT-93" value="" style="endArrow=none;html=1;rounded=0;entryX=0;entryY=0.5;entryDx=0;entryDy=0;" parent="WIyWlLk6GJQsqaUBKTNV-1" target="3SX-jlCpRVcLW0ezpYoT-45" edge="1">
          <mxGeometry width="50" height="50" relative="1" as="geometry">
            <mxPoint x="1100" y="270" as="sourcePoint" />
            <mxPoint x="960" y="182.5" as="targetPoint" />
          </mxGeometry>
        </mxCell>
        <mxCell id="3SX-jlCpRVcLW0ezpYoT-94" value="" style="endArrow=none;html=1;rounded=0;entryX=0;entryY=0.5;entryDx=0;entryDy=0;" parent="WIyWlLk6GJQsqaUBKTNV-1" target="3SX-jlCpRVcLW0ezpYoT-44" edge="1">
          <mxGeometry width="50" height="50" relative="1" as="geometry">
            <mxPoint x="1100" y="270" as="sourcePoint" />
            <mxPoint x="1300" y="27.5" as="targetPoint" />
          </mxGeometry>
        </mxCell>
        <mxCell id="3SX-jlCpRVcLW0ezpYoT-95" value="" style="endArrow=none;html=1;rounded=0;entryX=0;entryY=0.5;entryDx=0;entryDy=0;" parent="WIyWlLk6GJQsqaUBKTNV-1" target="3SX-jlCpRVcLW0ezpYoT-47" edge="1">
          <mxGeometry width="50" height="50" relative="1" as="geometry">
            <mxPoint x="1100" y="270" as="sourcePoint" />
            <mxPoint x="980" y="202.5" as="targetPoint" />
          </mxGeometry>
        </mxCell>
        <mxCell id="3SX-jlCpRVcLW0ezpYoT-96" value="" style="endArrow=none;html=1;rounded=0;entryX=0;entryY=0.5;entryDx=0;entryDy=0;exitX=1.033;exitY=0.364;exitDx=0;exitDy=0;exitPerimeter=0;" parent="WIyWlLk6GJQsqaUBKTNV-1" source="3SX-jlCpRVcLW0ezpYoT-1" target="3SX-jlCpRVcLW0ezpYoT-48" edge="1">
          <mxGeometry width="50" height="50" relative="1" as="geometry">
            <mxPoint x="780" y="467.5" as="sourcePoint" />
            <mxPoint x="990" y="212.5" as="targetPoint" />
          </mxGeometry>
        </mxCell>
        <mxCell id="3SX-jlCpRVcLW0ezpYoT-98" value="" style="endArrow=none;html=1;rounded=0;entryX=0;entryY=0.5;entryDx=0;entryDy=0;" parent="WIyWlLk6GJQsqaUBKTNV-1" target="3SX-jlCpRVcLW0ezpYoT-3" edge="1">
          <mxGeometry width="50" height="50" relative="1" as="geometry">
            <mxPoint x="500" y="285" as="sourcePoint" />
            <mxPoint x="550" y="235" as="targetPoint" />
          </mxGeometry>
        </mxCell>
        <mxCell id="3SX-jlCpRVcLW0ezpYoT-99" value="" style="endArrow=none;html=1;rounded=0;entryX=0;entryY=0.5;entryDx=0;entryDy=0;" parent="WIyWlLk6GJQsqaUBKTNV-1" target="3SX-jlCpRVcLW0ezpYoT-3" edge="1">
          <mxGeometry width="50" height="50" relative="1" as="geometry">
            <mxPoint x="500" y="335" as="sourcePoint" />
            <mxPoint x="550" y="285" as="targetPoint" />
          </mxGeometry>
        </mxCell>
        <mxCell id="3SX-jlCpRVcLW0ezpYoT-100" value="" style="endArrow=none;html=1;rounded=0;entryX=1.025;entryY=0.665;entryDx=0;entryDy=0;entryPerimeter=0;" parent="WIyWlLk6GJQsqaUBKTNV-1" target="3SX-jlCpRVcLW0ezpYoT-27" edge="1">
          <mxGeometry width="50" height="50" relative="1" as="geometry">
            <mxPoint x="610" y="285" as="sourcePoint" />
            <mxPoint x="790" y="305" as="targetPoint" />
          </mxGeometry>
        </mxCell>
        <mxCell id="3SX-jlCpRVcLW0ezpYoT-101" value="" style="endArrow=none;html=1;rounded=0;entryX=0;entryY=0.5;entryDx=0;entryDy=0;" parent="WIyWlLk6GJQsqaUBKTNV-1" target="3SX-jlCpRVcLW0ezpYoT-3" edge="1">
          <mxGeometry width="50" height="50" relative="1" as="geometry">
            <mxPoint x="500" y="405" as="sourcePoint" />
            <mxPoint x="550" y="355" as="targetPoint" />
          </mxGeometry>
        </mxCell>
        <mxCell id="3SX-jlCpRVcLW0ezpYoT-102" value="" style="endArrow=none;html=1;rounded=0;entryX=1;entryY=0.5;entryDx=0;entryDy=0;" parent="WIyWlLk6GJQsqaUBKTNV-1" target="3SX-jlCpRVcLW0ezpYoT-28" edge="1">
          <mxGeometry width="50" height="50" relative="1" as="geometry">
            <mxPoint x="610" y="285" as="sourcePoint" />
            <mxPoint x="810" y="325" as="targetPoint" />
          </mxGeometry>
        </mxCell>
        <mxCell id="ExBjZ8pog-AtWkOkbSy3-4" value="" style="endArrow=none;html=1;rounded=0;exitX=0.5;exitY=0;exitDx=0;exitDy=0;" parent="WIyWlLk6GJQsqaUBKTNV-1" source="3SX-jlCpRVcLW0ezpYoT-6" edge="1">
          <mxGeometry width="50" height="50" relative="1" as="geometry">
            <mxPoint x="850" y="470" as="sourcePoint" />
            <mxPoint x="840" y="280" as="targetPoint" />
          </mxGeometry>
        </mxCell>
        <mxCell id="ExBjZ8pog-AtWkOkbSy3-5" value="" style="endArrow=none;html=1;rounded=0;entryX=0;entryY=0.5;entryDx=0;entryDy=0;" parent="WIyWlLk6GJQsqaUBKTNV-1" target="3SX-jlCpRVcLW0ezpYoT-1" edge="1">
          <mxGeometry width="50" height="50" relative="1" as="geometry">
            <mxPoint x="840" y="280" as="sourcePoint" />
            <mxPoint x="840" y="280" as="targetPoint" />
          </mxGeometry>
        </mxCell>
        <mxCell id="--TpfeWfeMdfwwTfTwSB-0" value="añadir campo duracion en servicio o reserva" style="ellipse;whiteSpace=wrap;html=1;aspect=fixed;" vertex="1" parent="WIyWlLk6GJQsqaUBKTNV-1">
          <mxGeometry x="827" y="135" width="80" height="80" as="geometry" />
        </mxCell>
        <mxCell id="--TpfeWfeMdfwwTfTwSB-1" value="meter en empresa cuenta de empresa&amp;nbsp;" style="ellipse;whiteSpace=wrap;html=1;" vertex="1" parent="WIyWlLk6GJQsqaUBKTNV-1">
          <mxGeometry x="590" y="35" width="120" height="80" as="geometry" />
        </mxCell>
        <mxCell id="--TpfeWfeMdfwwTfTwSB-2" value="añadir establecimiento que va relacionado a servicio, el orden a hacer local-servicio&amp;nbsp;" style="ellipse;whiteSpace=wrap;html=1;" vertex="1" parent="WIyWlLk6GJQsqaUBKTNV-1">
          <mxGeometry x="710" y="795" width="120" height="80" as="geometry" />
        </mxCell>
      </root>
    </mxGraphModel>
  </diagram>
</mxfile>
